PathFileType	4	(X/Y/Z)	 s08c0103.trc
DataRate	CameraRate	NumFrames	NumMarkers	Units	OrigDataRate	OrigDataStartFrame	OrigNumFrames
200	200	4	50	mm	200	751	2000
Frame#	Time	racr			lacr			c7			jug			rlel			rdr			llel			ldr			s2			lic			ric			lasi			rasi			rpsi			lpsi			rgt			lgt			rth1			rth2			rth3			rth4			rlfc			rmfc			rsh1			rsh2			rsh3			rsh4			rlmal			rmmal			rcal			rtoe			rmt5			lth1			lth2			lth4			lth3			llfc			lmfc			llmal			lmmal			lcal			lmt5			lsh1			lsh2			lsh3			lsh4			ltoe			SBIKE			LBIKE			RBIKE			
		X1	Y1	Z1	X2	Y2	Z2	X3	Y3	Z3	X4	Y4	Z4	X5	Y5	Z5	X6	Y6	Z6	X7	Y7	Z7	X8	Y8	Z8	X9	Y9	Z9	X10	Y10	Z10	X11	Y11	Z11	X12	Y12	Z12	X13	Y13	Z13	X14	Y14	Z14	X15	Y15	Z15	X16	Y16	Z16	X17	Y17	Z17	X18	Y18	Z18	X19	Y19	Z19	X20	Y20	Z20	X21	Y21	Z21	X22	Y22	Z22	X23	Y23	Z23	X24	Y24	Z24	X25	Y25	Z25	X26	Y26	Z26	X27	Y27	Z27	X28	Y28	Z28	X29	Y29	Z29	X30	Y30	Z30	X31	Y31	Z31	X32	Y32	Z32	X33	Y33	Z33	X34	Y34	Z34	X35	Y35	Z35	X36	Y36	Z36	X37	Y37	Z37	X38	Y38	Z38	X39	Y39	Z39	X40	Y40	Z40	X41	Y41	Z41	X42	Y42	Z42	X43	Y43	Z43	X44	Y44	Z44	X45	Y45	Z45	X46	Y46	Z46	X47	Y47	Z47	X48	Y48	Z48	X49	Y49	Z49	X50	Y50	Z50	
751	3.7550	569.752631	1359.970055	-130.224706	541.712155	1384.080294	-418.663688	505.458433	1443.882996	-266.986850	500.539710	1283.132275	-278.541074	623.492751	1123.631189	-5.296457	804.206967	888.119061	-44.971844	587.406551	1112.778179	-493.951012	801.720261	921.468773	-411.909535	-44.272352	1222.781884	-211.103429	96.355414	1230.916814	-373.068392	133.295741	1221.080460	-63.868844	133.445479	1191.862246	-333.711559	147.864207	1163.727677	-99.402666	-9.146883	1261.490527	-157.550336	-18.125196	1271.368215	-250.141527	54.726562	1103.143947	-28.368519	60.901752	1130.289925	-407.670166	174.553157	982.364116	-27.750487	245.666354	928.757476	-32.224889	279.684847	848.990619	-35.272845	272.432235	950.372614	-44.613852	335.076687	748.905776	-45.810042	317.551437	738.294406	-154.742687	241.564554	655.282673	-17.048735	213.125855	572.510098	-39.920423	149.403580	515.509992	-45.573792	240.213350	560.598113	-66.800816	75.065815	421.307051	-54.936707	101.989350	429.973947	-141.653879	1.701772	445.471189	-105.044444	218.510362	238.275093	-97.949494	129.826422	276.708193	-33.379502	160.511443	1035.392811	-419.431339	240.274509	999.648223	-418.450656	262.805455	1026.662925	-407.566951	291.710227	927.178543	-420.999125	375.909724	823.751812	-398.543289	383.612807	798.209566	-291.852141	309.631175	406.990462	-393.833927	332.841928	430.589915	-307.330963	242.725582	369.680776	-355.775942	456.602280	349.641916	-414.756231	359.998646	694.977521	-420.356190	366.193927	611.103357	-402.700633	331.804984	530.663441	-403.281947	388.130988	611.774869	-369.624774	530.508643	395.443425	-346.167546	-183.248647	924.730813	-223.335649	11.057583	83.759859	-424.857430	4.851357	80.796624	-26.900606	
752	3.7600	568.997726	1360.391531	-129.327252	543.198627	1383.203527	-418.761352	505.469302	1443.697203	-267.074315	500.989635	1282.886283	-278.031029	622.418022	1123.356503	-5.881748	803.746805	888.632790	-45.447386	588.504759	1112.237315	-495.597359	801.595533	919.878568	-411.979122	-43.628043	1221.185157	-215.021227	98.410749	1227.954378	-377.317778	132.512854	1221.980095	-66.607805	135.231689	1189.019176	-337.360497	147.516918	1164.301328	-101.870682	-9.251211	1260.993502	-161.288012	-17.110872	1269.108078	-254.702467	55.742173	1104.165265	-30.440668	61.722111	1124.707692	-410.368539	177.417418	985.059084	-28.581724	249.466665	932.813137	-33.144031	285.069895	853.640065	-36.438343	275.836450	954.847953	-45.772887	342.126098	755.221942	-47.414535	324.263062	743.932399	-156.321651	246.985121	663.202817	-18.490039	216.995606	580.972256	-40.911939	152.206572	525.124406	-46.298247	244.080715	568.451536	-67.676422	76.084019	432.545519	-55.349463	103.220450	440.606360	-141.836654	2.957865	457.964860	-105.141197	216.715373	247.531236	-98.115609	128.631539	287.423993	-33.370285	160.272699	1027.689392	-421.221760	239.386727	990.604274	-420.131870	262.479081	1017.403758	-410.140819	289.583826	917.397103	-422.187266	372.440503	813.737994	-399.054576	379.445353	787.903768	-292.824197	311.241182	396.276967	-394.341352	334.324768	420.106239	-307.790339	244.553519	359.585093	-356.142489	458.451347	338.207131	-414.679948	357.684026	684.514982	-421.278781	365.136960	600.840967	-403.194153	331.883237	519.199773	-402.921753	386.961562	601.751662	-369.849867	532.534034	383.216399	-345.383279	-183.030690	924.629933	-224.097522	10.994451	83.515817	-424.805890	4.841336	80.609424	-27.032716	
753	3.7650	567.963049	1360.993254	-128.212455	544.551009	1382.218977	-418.681722	505.632439	1443.703225	-267.171633	500.900674	1282.834083	-277.211338	620.718652	1123.286471	-5.652008	803.221187	889.107892	-45.963188	590.217161	1111.863391	-497.357449	801.473453	916.983258	-410.889721	-42.981609	1219.715810	-219.199280	100.350916	1224.668853	-380.872903	131.648819	1222.853831	-69.714691	137.180079	1185.943742	-341.042153	147.112727	1164.986305	-104.245178	-9.585373	1260.532604	-165.818492	-16.012100	1266.953856	-259.672362	56.320542	1105.559581	-32.362186	62.766577	1118.945989	-412.967974	179.849604	987.564453	-29.114189	253.071316	936.953825	-33.688553	290.519358	858.545414	-37.452321	278.877889	959.421092	-46.553251	348.948014	761.654537	-49.201284	324.665894	752.609598	-163.241900	252.402207	671.407666	-19.969873	220.980404	589.434868	-42.105788	155.184648	534.909908	-47.133282	247.868762	576.388867	-68.693532	77.449694	444.009428	-55.792644	104.602542	451.348062	-142.103740	4.530885	470.253013	-105.285985	216.781879	258.022677	-97.091195	128.656714	298.642142	-33.020774	160.031098	1020.069033	-422.809282	238.406717	981.384676	-421.604491	262.260534	1008.189795	-413.064473	287.263016	907.297212	-422.670276	368.802852	803.554853	-399.278762	374.902408	777.479557	-293.666319	312.534261	385.584114	-394.657306	336.672246	410.629058	-309.590948	245.830767	349.614143	-356.460915	459.738652	326.560879	-414.385363	355.002434	673.926970	-421.773031	363.729982	590.320382	-403.449601	331.835113	508.116944	-402.719453	385.492831	591.908152	-370.178770	533.926652	371.081896	-345.266681	-182.902515	924.407179	-224.906033	10.959890	83.414778	-424.787995	4.765457	80.566582	-27.007697	
754	3.7700	566.854878	1361.828054	-126.489382	545.755641	1381.345239	-418.692353	505.753650	1443.757662	-267.191671	500.808992	1282.814404	-275.949449	618.507882	1123.023048	-4.949382	802.757970	889.628402	-46.353678	593.032478	1111.791792	-498.680199	801.628835	914.750455	-410.902624	-42.386557	1218.392244	-223.698138	102.898900	1221.627881	-384.961658	130.708623	1223.790676	-72.684074	139.072833	1182.855547	-344.672967	146.685858	1165.867474	-106.712140	-9.787803	1259.998240	-170.447300	-14.782238	1264.585576	-264.800084	56.706637	1107.202767	-34.410852	63.979196	1113.127732	-415.549882	181.870141	989.999222	-29.550685	256.281655	941.197100	-34.169595	294.848827	863.387983	-38.778830	281.518420	964.212876	-47.366653	355.611935	768.363909	-51.038907	331.159814	758.868781	-164.938033	257.863587	679.615738	-21.508013	225.141816	598.212223	-43.182294	158.402410	544.636792	-47.942069	251.438798	584.603851	-69.920502	78.942275	455.390739	-56.051926	106.152475	462.241968	-142.484537	6.213568	482.157972	-105.551596	216.403541	268.332497	-97.040197	128.710214	309.396201	-33.227284	159.643248	1012.367554	-424.466119	237.312519	972.231276	-423.002871	261.389764	998.499531	-414.726615	284.696647	897.223476	-423.024111	364.807495	793.200851	-399.507763	370.039567	767.101845	-294.367481	313.270018	374.938226	-394.864241	348.391022	408.988039	-322.779409	246.409888	339.825536	-356.772670	460.258241	314.877554	-414.217170	352.119013	663.320286	-421.726505	361.986034	580.038316	-403.594493	331.264767	497.321375	-402.756456	383.569577	581.819052	-370.208818	534.871688	358.968788	-345.162859	-186.286786	919.686144	-225.795711	10.936932	83.256518	-424.816657	4.686672	80.694550	-26.873056	
